<?xml version="1.0" encoding="utf-8"?>
<!-- Generator: Adobe Illustrator 19.2.1, SVG Export Plug-In . SVG Version: 6.00 Build 0)  -->
<svg version="1.1" id="layer" xmlns="http://www.w3.org/2000/svg" xmlns:xlink="http://www.w3.org/1999/xlink" x="0px" y="0px"
	 viewBox="0 0 652 652" style="enable-background:new 0 0 652 652;" xml:space="preserve">
<style type="text/css">
	.st0{fill:#F36C34;}
</style>
<path class="st0" d="M195.8,399.2c6.6,1.7,10,4.3,10,10c0,6.4-4.6,10.2-11.1,10.2c-4.8,0-9.2-1.8-13-5.4l3.3-4.3
	c3,2.8,5.9,4.4,9.8,4.4c3.4,0,5.5-1.7,5.5-4.3c0-2.5-1.2-3.8-7-5.2c-6.6-1.7-10.4-3.9-10.4-10.2c0-5.9,4.5-9.9,10.6-9.9
	c4.5,0,8.1,1.5,11.3,4.3l-2.9,4.5c-2.8-2.3-5.6-3.5-8.4-3.5c-3.2,0-5.1,1.8-5.1,4.1C188.4,396.5,189.8,397.6,195.8,399.2"/>
<polygon class="st0" points="239.7,390.2 222.1,390.2 222.1,399.1 237.7,399.1 237.7,404.4 222.1,404.4 222.1,413.5 239.9,413.5 
	239.9,418.9 216.7,418.9 216.7,384.9 239.7,384.9 "/>
<polygon class="st0" points="250.9,384.9 256.4,384.9 256.4,413.4 272.7,413.4 272.7,418.9 250.9,418.9 "/>
<polygon class="st0" points="282.9,384.9 288.3,384.9 288.3,413.4 304.7,413.4 304.7,418.9 282.9,418.9 "/>
<rect x="315.1" y="384.9" class="st0" width="5.5" height="34"/>
<polygon class="st0" points="355.1,384.9 360.4,384.9 360.4,418.9 355.9,418.9 338.7,394.7 338.7,418.9 333.3,418.9 333.3,384.9 
	338.4,384.9 355.1,408.4 "/>
<path class="st0" d="M387.6,419.4c-9.7,0-16.1-7.6-16.1-17.5c0-9.6,6.7-17.6,16-17.6c5.4,0,8.7,1.7,11.9,4.6l-3.5,4.5
	c-2.4-2.2-4.8-3.6-8.7-3.6c-5.7,0-10.1,5.4-10.1,12c0,7,4.2,12.2,10.6,12.2c2.9,0,5.6-1,7.5-2.6v-6.4h-8v-5.2h13.2v14.3
	C397.5,417,393.2,419.4,387.6,419.4"/>
<path class="st0" d="M441.8,390.3h-6.4v12.2h6.4c4.1,0,6.7-2.5,6.7-6.1C448.5,392.4,445.9,390.3,441.8,390.3 M441.6,408h-6.2v10.9
	H430v-34h12.3c7.3,0,11.8,4.5,11.8,11.4C454,404,448.4,408,441.6,408"/>
<path class="st0" d="M477.5,390.3h-8v11.4h8c3.9,0,6.4-2.2,6.4-5.7C483.9,392.3,481.5,390.3,477.5,390.3 M484,418.9l-7.6-11.8h-6.8
	v11.8h-5.5v-34h13.9c7.1,0,11.5,4.1,11.5,10.8c0,5.6-3.1,9-7.4,10.3l8.4,12.9H484z"/>
<path class="st0" d="M515.5,389.8c-6.2,0-10.5,5.4-10.5,12c0,6.6,4.4,12.1,10.6,12.1c6.2,0,10.5-5.4,10.5-12
	C526.1,395.3,521.7,389.8,515.5,389.8 M515.5,419.4c-9.6,0-16.2-7.9-16.2-17.5c0-9.6,6.8-17.6,16.3-17.6c9.5,0,16.2,7.9,16.2,17.5
	C531.8,411.4,525.1,419.4,515.5,419.4"/>
<path class="st0" d="M554.7,399.2c6.6,1.7,10,4.3,10,10c0,6.4-4.6,10.2-11.1,10.2c-4.8,0-9.2-1.8-13-5.4l3.3-4.3
	c3,2.8,5.9,4.4,9.8,4.4c3.4,0,5.5-1.7,5.5-4.3c0-2.5-1.2-3.8-7-5.2c-6.6-1.7-10.3-3.9-10.3-10.2c0-5.9,4.4-9.9,10.6-9.9
	c4.5,0,8.1,1.5,11.3,4.3l-2.9,4.5c-2.8-2.3-5.6-3.5-8.4-3.5c-3.2,0-5.1,1.8-5.1,4.1C547.3,396.5,548.7,397.6,554.7,399.2"/>
<path class="st0" d="M179.8,343.3c0-13.9,10.3-25.2,23.1-25.2h30.8c4.2,0,7.7-3.7,7.7-8.4c0-4.6-3.5-8.4-7.7-8.4h-53.8v-16.8h53.8
	c12.7,0,23.1,11.3,23.1,25.2c0,13.9-10.3,25.2-23.1,25.2h-30.8c-4.3,0-7.7,3.7-7.7,8.4v25.2h-15.4V343.3"/>
<path class="st0" d="M549,343.3c0-13.9,10.3-25.2,23.1-25.2h30.8c4.3,0,7.7-3.7,7.7-8.4c0-4.6-3.4-8.4-7.7-8.4H549v-16.8h53.8
	c12.8,0,23.1,11.3,23.1,25.2c0,13.9-10.3,25.2-23.1,25.2h-30.8c-4.3,0-7.7,3.7-7.7,8.4v25.2H549V343.3"/>
<path class="st0" d="M56.7,376.9c0-13.9,10.3-25.2,23.1-25.2h61.6c4.2,0,7.7-3.8,7.7-8.4c0-4.7-3.4-8.4-7.7-8.4h-38.5v-16.8h38.5
	c12.7,0,23.1,11.3,23.1,25.2c0,13.9-10.3,25.2-23.1,25.2H79.8c-4.2,0-7.7,3.8-7.7,8.4v58.8H56.7V376.9"/>
<path class="st0" d="M133.6,276.1c0,13.9-10.3,25.2-23.1,25.2H49c-4.3,0-7.7,3.8-7.7,8.4c0,4.6,3.4,8.4,7.7,8.4h38.5v16.8H49
	c-12.7,0-23.1-11.3-23.1-25.2c0-13.9,10.3-25.2,23.1-25.2h61.5c4.3,0,7.7-3.8,7.7-8.4v-58.8h15.4V276.1"/>
<path class="st0" d="M310.5,351.7c-12.7,0-23.1-11.3-23.1-25.2c0-13.9,10.3-25.2,23.1-25.2c12.7,0,23.1,11.3,23.1,25.2
	C333.6,340.4,323.3,351.7,310.5,351.7 M310.5,284.5c-21.2,0-38.4,18.8-38.4,42c0,23.2,17.2,42,38.4,42c21.2,0,38.5-18.8,38.5-42
	C349,303.3,331.8,284.5,310.5,284.5"/>
<path class="st0" d="M441.3,284.5h-14.8l-0.6,58.8c0,4.6-3.4,8.4-7.7,8.4c-4.2,0-7.7-3.8-7.7-8.4v-23.7h-15.4v23.7
	c0,4.6-3.4,8.4-7.7,8.4c-4.3,0-7.7-3.8-7.7-8.4v-58.8h-15.4v58.8c0,13.9,10.3,25.2,23.1,25.2c5.9,0,11.3-2.5,15.4-6.5
	c4.1,4,9.5,6.5,15.4,6.5c12.8,0,23.1-11.3,23.1-25.2V284.5"/>
<path class="st0" d="M533.6,368.5v-16.2l-53.8-0.6c-4.3,0-7.7-3.8-7.7-8.4c0-4.7,3.4-8.4,7.7-8.4h21.7v-16.8h-21.7
	c-4.3,0-7.7-3.8-7.7-8.4c0-4.6,3.4-8.4,7.7-8.4h53.8v-16.8h-53.8c-12.7,0-23.1,11.3-23.1,25.2c0,6.5,2.2,12.3,5.9,16.8
	c-3.7,4.5-5.9,10.3-5.9,16.8c0,13.9,10.3,25.2,23.1,25.2H533.6"/>
<polygon class="st0" points="579.8,318.1 595.2,318.1 625.9,368.5 610.5,368.5 "/>
</svg>
